<?xml version="1.0" standalone="no"?><!DOCTYPE svg PUBLIC "-//W3C//DTD SVG 1.1//EN" "http://www.w3.org/Graphics/SVG/1.1/DTD/svg11.dtd"><svg t="1537407156214" class="icon" style="" viewBox="0 0 1024 1024" version="1.1" xmlns="http://www.w3.org/2000/svg" p-id="9646" xmlns:xlink="http://www.w3.org/1999/xlink" width="200" height="200"><defs><style type="text/css"></style></defs><path d="M312.961138 739.887901 546.939633 739.887901 555.956312 858.434115 303.944459 858.434115Z" p-id="9647"></path><path d="M230.467192 805.490023 303.944459 805.490023 294.927779 867.44357 564.972991 867.44357 555.956312 805.490023 629.433579 805.490023 656.483617 924.029013 203.417154 924.029013Z" p-id="9648"></path><path d="M777.385149 623.848729 777.385149 623.848729c0 8.19304-6.697485 14.897751-14.890526 14.897751L97.406147 638.746479c-8.19304 0-14.890526-6.70471-14.890526-14.897751L82.515621 199.790252c0-8.19304 6.697485-14.883301 14.890526-14.883301l665.088477 0c8.19304 0 14.890526 6.69026 14.890526 14.883301L777.385149 623.848729zM844.995795 99.963763 14.897751 99.963763C6.70471 99.963763 0 106.675698 0 114.861513l0 610.179211c0 8.19304 6.70471 14.897751 14.897751 14.897751l182.067564 0 0-0.043349 381.662744 0 0 0.043349 266.367736 0c8.185815 0 14.897751-6.70471 14.897751-14.897751L859.893546 114.861513C859.893546 106.675698 853.18161 99.963763 844.995795 99.963763z" p-id="9649"></path><path d="M1002.491463 402.810036l-103.89411 0c-1.936274 0-3.677476 0.78029-4.927384 2.022973l-0.0289 0.0289c-1.249908 1.242683-2.022973 2.99111-2.022973 4.920159l0 415.106821c0 1.929049 0.773065 3.670251 2.022973 4.920159l0.0289 0.0289c1.249908 1.249908 2.99111 2.022973 4.927384 2.022973l103.89411 0c1.929049 0 3.670251-0.773065 4.920159-2.022973l0.0289-0.0289c1.249908-1.249908 2.022973-2.99111 2.022973-4.920159L1009.463494 409.782068c0-1.929049-0.773065-3.670251-2.022973-4.920159l-0.0289-0.0289C1006.161714 403.590325 1004.413287 402.810036 1002.491463 402.810036M898.597353 388.266305l103.89411 0c5.881071 0 11.263624 2.420343 15.172297 6.32179l0.01445 0.01445 0.01445 0.01445 0.021675 0.007225c3.879773 3.908673 6.292891 9.284001 6.292891 15.165072l0 415.106821c0 5.888296-2.413118 11.270849-6.314566 15.179522l-0.01445 0.007225-0.01445 0.01445-0.01445 0.021675c-3.901448 3.879773-9.276776 6.292891-15.157847 6.292891l-103.89411 0c-5.888296 0-11.270849-2.413118-15.179522-6.314566l-0.021675-0.01445-0.007225-0.007225-0.01445-0.021675c-3.894223-3.908673-6.300116-9.269551-6.300116-15.157847L877.074366 409.782068c0-5.888296 2.413118-11.270849 6.314566-15.172297l0.007225-0.01445 0.021675-0.01445 0.01445-0.01445C887.340953 390.679423 892.716281 388.266305 898.597353 388.266305z" p-id="9650"></path><path d="M950.233737 786.842548c2.507041 0 4.537239 2.030198 4.537239 4.537239s-2.030198 4.537239-4.537239 4.537239c-2.499817 0-4.530014-2.030198-4.530014-4.537239S947.741145 786.842548 950.233737 786.842548M950.233737 778.519459c7.10208 0 12.860328 5.758248 12.860328 12.853103 0 7.10208-5.758248 12.860328-12.860328 12.860328-7.094855 0-12.853103-5.758248-12.853103-12.860328C937.380634 784.277707 943.138882 778.519459 950.233737 778.519459zM921.326899 772.558914l58.413343 0 0 38.234188-58.413343 0L921.326899 772.558914zM981.878814 448.630373l-62.690486 0 0 13.503344 62.690486 0L981.878814 448.630373zM913.993622 464.734682l0-33.422403 0-2.600965 2.600965 0 67.885192 0 2.600965 0 0 2.600965 0 33.422403 0 2.600965-2.600965 0-67.885192 0-2.600965 0L913.993622 464.734682zM981.878814 496.090763l-62.690486 0 0 13.503344 62.690486 0L981.878814 496.090763zM913.993622 512.187847l0-33.422403 0-2.600965 2.600965 0 67.885192 0 2.600965 0 0 2.600965 0 33.422403 0 2.600965-2.600965 0-67.885192 0-2.600965 0L913.993622 512.187847zM898.07716 407.889143l104.927271 0 0 416.060509-104.927271 0L898.07716 407.889143z" p-id="9651"></path></svg>