<?xml version="1.0" standalone="no"?><!DOCTYPE svg PUBLIC "-//W3C//DTD SVG 1.1//EN" "http://www.w3.org/Graphics/SVG/1.1/DTD/svg11.dtd"><svg t="1538034158689" class="icon" style="" viewBox="0 0 1024 1024" version="1.1" xmlns="http://www.w3.org/2000/svg" p-id="3996" xmlns:xlink="http://www.w3.org/1999/xlink" width="200" height="200"><defs><style type="text/css"></style></defs><path d="M450.048 832H108.544c-24.576 0-44.544-19.968-44.544-44.544V384H896V172.544c0-59.904-48.64-108.544-108.544-108.544h-83.456V0H640v64H256V0H192v64H108.544C48.64 64 0 112.64 0 172.544v615.424C0 847.36 48.64 896 108.544 896h341.504c17.92 0 32.256-14.336 32.256-32.256s-14.336-31.744-32.256-31.744zM160.256 480.256H384v64H160.256V480.256z m0 192H384v64H160.256v-64z m640-96.256h-64v160.256H896v-64h-96.256v-96.256z m148.992-53.248c-48.64-48.64-112.64-74.752-181.248-74.752s-132.608 26.624-181.248 74.752c-48.64 48.64-74.752 112.64-74.752 181.248s26.624 132.608 74.752 181.248c48.64 48.64 112.64 74.752 181.248 74.752s132.608-26.624 181.248-74.752c48.64-48.64 74.752-112.64 74.752-181.248s-26.624-132.608-74.752-181.248zM768 896c-105.984 0-192-86.016-192-192S662.016 512 768 512s192 86.016 192 192S873.984 896 768 896z" p-id="3997"></path></svg>