<?xml version="1.0" standalone="no"?><!DOCTYPE svg PUBLIC "-//W3C//DTD SVG 1.1//EN" "http://www.w3.org/Graphics/SVG/1.1/DTD/svg11.dtd"><svg t="1538034969626" class="icon" style="" viewBox="0 0 1024 1024" version="1.1" xmlns="http://www.w3.org/2000/svg" p-id="8689" xmlns:xlink="http://www.w3.org/1999/xlink" width="200" height="200"><defs><style type="text/css"></style></defs><path d="M960 0 64 0C28.672 0 0 28.672 0 64l0 896c0 35.328 28.672 64 64 64l896 0c35.328 0 64-28.672 64-64L1024 64C1024 28.672 995.328 0 960 0zM836.512 788.384 187.52 788.384l0-60.512 286.016 0L473.536 298.88l-250.24 0L223.296 235.616l574.72 0L798.016 298.88l-250.24 0 0 428.992 288.736 0L836.512 788.384z" p-id="8690"></path></svg>