<?xml version="1.0" standalone="no"?><!DOCTYPE svg PUBLIC "-//W3C//DTD SVG 1.1//EN" "http://www.w3.org/Graphics/SVG/1.1/DTD/svg11.dtd"><svg t="1538034513652" class="icon" style="" viewBox="0 0 1024 1024" version="1.1" xmlns="http://www.w3.org/2000/svg" p-id="5797" xmlns:xlink="http://www.w3.org/1999/xlink" width="200" height="200"><defs><style type="text/css"></style></defs><path d="M793.6 204.8l0 486.4L102.4 691.2 102.4 204.8 793.6 204.8M793.6 102.4 102.4 102.4C46.08 102.4 0 148.48 0 204.8l0 486.4c0 56.32 46.08 102.4 102.4 102.4l691.2 0c56.32 0 102.4-46.08 102.4-102.4L896 204.8C896 148.48 849.92 102.4 793.6 102.4L793.6 102.4z" p-id="5798"></path><path d="M947.2 276.48c0 2.56 0 2.56 0 5.12l0 460.8c0 56.32-46.08 102.4-102.4 102.4L153.6 844.8c-2.56 0-2.56 0-5.12 0 25.6 46.08 76.8 76.8 133.12 76.8l588.8 0c84.48 0 153.6-69.12 153.6-153.6L1024 409.6C1024 353.28 993.28 302.08 947.2 276.48z" p-id="5799"></path><path d="M230.4 358.4m-76.8 0a3 3 0 1 0 153.6 0 3 3 0 1 0-153.6 0Z" p-id="5800"></path><path d="M153.6 640 742.4 640 742.4 563.2 640 307.2 512 512 435.2 409.6 256 614.4 204.8 537.6Z" p-id="5801"></path></svg>