<?xml version="1.0" standalone="no"?><!DOCTYPE svg PUBLIC "-//W3C//DTD SVG 1.1//EN" "http://www.w3.org/Graphics/SVG/1.1/DTD/svg11.dtd"><svg t="1537406053069" class="icon" style="" viewBox="0 0 1024 1024" version="1.1" xmlns="http://www.w3.org/2000/svg" p-id="5433" xmlns:xlink="http://www.w3.org/1999/xlink" width="200" height="200"><defs><style type="text/css"></style></defs><path d="M1000.672 784.096c-10.592 14.912-28.96 7.104-52.8 7.104-4.48 0-18.624 0.224-20.768 0l-145.28 0c0-125.056-82.016-261.312-177.248-286.144 25.248-15.616 55.488-26.528 92.32-30.912-52.064-16.704-92.64-59.232-108.032-112.576-21.536 69.184-74.56 124.224-142.048 147.52 176.864 33.792 240.736 162.848 279.648 309.792 9.056 34.336 15.68 81.216-4.416 109.504-14.496 20.352-32.16 28.832-64.736 28.832 0 0-0.192 2.176-20.768 0l-529.312 2.08c-8.928 0.48-51.712 1.728-77.248-30.88-24.672-31.488-13.024-90.272-12.864-90.848 34.016-157.984 90.56-305.632 273.088-332.512-86.144-33.6-151.712-115.84-151.712-211.904 0-125.792 112.352-228.16 236.224-228.16 109.056 0 200.16 79.36 220.416 184.16 25.184-59.552 83.456-101.376 151.2-101.376 90.72 0 164.512 74.912 164.512 167.04 0 76.8-51.36 141.472-120.928 160.928 139.488 20.288 184.416 116.736 213.92 228.16 6.624 25.152 11.456 59.456-3.232 80.16zM259.04 871.936l24.544 0 0-19.104 71.456 0 0 17.984 24.576 0 0-107.904-120.576 0 0 109.024zM388.544 640.384l-58.048 0 7.808-3.392c-4.48-11.232-7.808-18.336-10.048-21.376-2.24-5.248-3.712-8.96-4.48-11.232l-25.664 5.6c0.736 2.24 2.24 5.632 4.48 10.144 3.712 8.224 6.688 14.976 8.928 20.224l-61.408 0 0 20.224 138.432 0 0-20.224zM262.4 675.232c1.472 3.008 4.096 7.136 7.808 12.352 6.688 10.496 11.904 18.752 15.648 24.736l21.216-11.232c-4.48-6.752-10.4-15.36-17.856-25.856-3.712-4.48-6.336-7.872-7.808-10.112l-18.976 10.112zM395.232 713.44l-42.4 0 22.336-40.448-22.336-7.872c-8.192 15.008-16.736 31.104-25.664 48.32l-84.832 0 0 21.376 152.928 0 0-21.376zM408.64 874.208l23.456 0 0-229.312 49.12 0-27.904 79.808c22.336 21.728 33.504 43.072 33.504 64.096 0.736 17.984-6.336 26.592-21.216 25.824-8.928 0-17.472-0.352-25.664-1.12 0.736 3.008 1.856 7.488 3.36 13.472 0.736 6.016 1.504 10.496 2.24 13.504 13.408 0 22.688-0.352 27.904-1.12 25.312-2.24 37.952-18.336 37.952-48.32 0.736-24.736-10.432-47.968-33.504-69.696l27.904-75.328 0-24.736-97.12 0 0 252.928zM283.616 784.288l71.456 0 0 49.44-71.456 0 0-49.44z" p-id="5434"></path></svg>