<?xml version="1.0" standalone="no"?><!DOCTYPE svg PUBLIC "-//W3C//DTD SVG 1.1//EN" "http://www.w3.org/Graphics/SVG/1.1/DTD/svg11.dtd"><svg t="1538033910146" class="icon" style="" viewBox="0 0 1024 1024" version="1.1" xmlns="http://www.w3.org/2000/svg" p-id="2014" xmlns:xlink="http://www.w3.org/1999/xlink" width="200" height="200"><defs><style type="text/css"></style></defs><path d="M334.1312 434.9952c0.512 1.7408 1.536 3.1744 2.1504 3.8912l146.6368 210.7392 0.3072 0.4096 3.8912 3.8912c2.7648 4.096 5.5296 6.8608 8.192 9.5232l0.4096 0.4096 0.512 0.3072c4.9152 2.9696 10.4448 4.3008 16.0768 4.3008 11.9808 0 24.4736-6.2464 32.6656-17.5104l0.1024-0.1024 133.7344-215.04 1.9456-2.8672h0.6144l1.536-2.4576c19.3536-31.744 29.5936-68.5056 29.5936-106.1888 0-114.0736-92.8768-206.9504-206.9504-206.9504s-206.9504 92.8768-206.9504 206.9504v0.3072c2.56 40.96 14.848 79.1552 35.5328 110.3872zM409.6 225.1776c26.2144-26.624 61.1328-41.2672 98.5088-41.2672 76.6976 0 139.0592 62.3616 139.0592 139.0592 0 24.9856-6.8608 49.2544-20.2752 72.0896l-2.6624 5.3248-109.8752 175.4112L395.776 405.504l-5.12-10.1376-0.2048-0.4096c-13.0048-20.7872-20.1728-46.3872-20.1728-72.0896-0.6144-36.6592 13.312-71.3728 39.3216-97.6896z" fill="" p-id="2015"></path><path d="M512 419.84c23.552 0 45.568-9.1136 62.1568-25.6s25.6-38.6048 25.6-62.1568-9.1136-45.568-25.6-62.1568-38.6048-25.6-62.1568-25.6-45.568 9.1136-62.1568 25.6-25.6 38.6048-25.6 62.1568 9.1136 45.568 25.6 62.1568 38.6048 25.6 62.1568 25.6z m-22.4256-87.7568c0-12.3904 10.0352-22.4256 22.4256-22.4256 13.0048 0 22.4256 9.4208 22.4256 22.4256s-9.4208 22.4256-22.4256 22.4256c-12.3904 0-22.4256-10.0352-22.4256-22.4256zM897.2288 437.5552c-6.3488-6.9632-15.36-10.9568-24.7808-10.9568H752.64c-18.6368 0-32.6656 14.0288-32.6656 32.6656s14.0288 32.6656 32.6656 32.6656h64.7168c11.4688 0 22.4256 10.8544 22.4256 22.4256v277.9136c0 13.0048-9.4208 22.4256-22.4256 22.4256H206.5408c-13.0048 0-22.4256-9.4208-22.4256-22.4256V515.584c0-13.0048 9.4208-22.4256 22.4256-22.4256h64.7168c18.6368 0 32.6656-14.0288 32.6656-32.6656s-14.0288-32.6656-32.6656-32.6656H151.552c-18.6368 0-32.6656 14.0288-32.6656 32.6656v387.9936c0 18.6368 14.0288 32.6656 32.6656 32.6656h720.896c18.6368 0 32.6656-14.0288 32.6656-32.6656V459.4688c0.6144-7.8848-2.1504-15.6672-7.8848-21.9136z" fill="" p-id="2016"></path></svg>