<?xml version="1.0" standalone="no"?><!DOCTYPE svg PUBLIC "-//W3C//DTD SVG 1.1//EN" "http://www.w3.org/Graphics/SVG/1.1/DTD/svg11.dtd"><svg t="1537406338104" class="icon" style="" viewBox="0 0 1024 1024" version="1.1" xmlns="http://www.w3.org/2000/svg" p-id="7017" xmlns:xlink="http://www.w3.org/1999/xlink" width="200" height="200"><defs><style type="text/css"></style></defs><path d="M512 31.288889C247.466667 31.288889 31.288889 247.466667 31.288889 512c0 264.533333 216.177778 480.711111 480.711111 480.711111 264.533333 0 480.711111-216.177778 480.711111-480.711111 0-264.533333-216.177778-480.711111-480.711111-480.711111z m0 893.155555C284.444444 924.444444 99.555556 739.555556 99.555556 512S284.444444 99.555556 512 99.555556 924.444444 284.444444 924.444444 512 739.555556 924.444444 512 924.444444zM156.444444 546.133333h82.488889v-68.266666H156.444444v68.266666z m628.622223-68.266666v68.266666h82.488889v-68.266666h-82.488889zM546.133333 153.6h-68.266666v392.533333l176.355555 176.355556 48.355556-48.355556-156.444445-156.444444V153.6z m-68.266666 713.955556h68.266666v-82.488889h-68.266666v82.488889z" p-id="7018"></path></svg>