<?xml version="1.0" standalone="no"?><!DOCTYPE svg PUBLIC "-//W3C//DTD SVG 1.1//EN" "http://www.w3.org/Graphics/SVG/1.1/DTD/svg11.dtd"><svg t="1537406983148" class="icon" style="" viewBox="0 0 1024 1024" version="1.1" xmlns="http://www.w3.org/2000/svg" p-id="7705" xmlns:xlink="http://www.w3.org/1999/xlink" width="200" height="200"><defs><style type="text/css"></style></defs><path d="M834.56 412.672l5.12 3.072 3.072-5.12 30.72-57.344 3.072-5.12-6.144-3.072-38.912-20.48c2.048-9.216 3.072-18.432 3.072-27.648l41.984-12.288 5.12-2.048-2.048-5.12-18.432-62.464-1.024-5.12-5.12 2.048-41.984 12.288c-5.12-7.168-10.24-14.336-16.384-20.48l20.48-37.888 3.072-5.12-5.12-3.072-57.344-30.72-5.12-3.072-3.072 5.12-20.48 37.888c-8.192-2.048-16.384-2.048-24.576-3.072l-12.288-40.96-2.048-5.12-5.12 2.048-62.464 18.432-5.12 2.048 2.048 5.12 12.288 40.96c-7.168 5.12-14.336 10.24-21.504 17.408l-37.888-20.48-5.12-3.072-3.072 5.12-30.72 57.344-3.072 5.12 5.12 3.072 36.864 20.48c-2.048 9.216-3.072 19.456-3.072 28.672l-40.96 12.288-5.12 2.048 2.048 5.12 18.432 62.464 2.048 5.12 5.12-2.048 40.96-12.288c5.12 7.168 11.264 14.336 17.408 20.48l-20.48 37.888-3.072 5.12 5.12 3.072 57.344 30.72 5.12 3.072 3.072-5.12 20.48-38.912c8.192 1.024 16.384 2.048 24.576 2.048l12.288 41.984 2.048 5.12 5.12-2.048 62.464-18.432 5.12-2.048-2.048-5.12-12.288-41.984c7.168-5.12 14.336-10.24 20.48-16.384l39.936 20.48z m-62.464-77.824c-20.48 37.888-68.608 52.224-106.496 31.744-37.888-20.48-52.224-68.608-31.744-106.496 20.48-37.888 68.608-52.224 106.496-31.744s52.224 67.584 31.744 106.496zM858.112 786.432l6.144 2.048 2.048-6.144 19.456-70.656 2.048-6.144-7.168-1.024-48.128-13.312c0-10.24-1.024-20.48-4.096-30.72l43.008-24.576 5.12-3.072-3.072-5.12-35.84-63.488-3.072-5.12-5.12 3.072-43.008 24.576c-7.168-7.168-15.36-12.288-23.552-18.432l12.288-47.104 2.048-6.144-6.144-2.048-70.656-19.456-6.144-2.048-2.048 6.144-12.288 47.104c-9.216 0-18.432 1.024-27.648 3.072l-24.576-41.984-2.048-4.096-5.12 3.072-63.488 35.84-5.12 3.072 3.072 5.12 23.552 40.96c-7.168 7.168-13.312 15.36-18.432 23.552l-46.08-12.288-6.144-2.048-2.048 6.144-19.456 70.656-2.048 6.144 6.144 2.048 46.08 12.288c0 11.264 2.048 21.504 4.096 32.768l-40.96 23.552-5.12 3.072 3.072 5.12 35.84 63.488 3.072 5.12 5.12-3.072 41.984-24.576c7.168 7.168 15.36 13.312 23.552 18.432l-12.288 46.08-1.024 7.168 6.144 2.048 70.656 19.456 6.144 2.048 2.048-6.144 13.312-48.128c9.216 0 18.432-2.048 26.624-4.096l24.576 43.008 3.072 5.12 5.12-3.072 63.488-35.84 5.12-3.072-4.096-5.12-24.576-43.008c7.168-7.168 12.288-14.336 17.408-22.528l49.152 12.288z m-88.064-68.608c-12.288 47.104-61.44 74.752-108.544 62.464-47.104-12.288-74.752-61.44-62.464-108.544 12.288-47.104 61.44-74.752 108.544-62.464 47.104 12.288 74.752 61.44 62.464 108.544zM523.264 471.04h6.144v-6.144l-5.12-72.704v-6.144h-6.144l-50.176 3.072c-3.072-10.24-8.192-19.456-13.312-27.648l32.768-36.864 4.096-5.12-5.12-4.096-54.272-48.128-5.12-4.096-4.096 5.12-32.768 36.864c-9.216-4.096-18.432-7.168-27.648-9.216l-3.072-49.152v-6.144h-6.144l-73.728 5.12h-6.144v6.144l3.072 49.152c-9.216 3.072-17.408 7.168-24.576 12.288L215.04 281.6l-5.12-4.096-4.096 5.12-48.128 54.272-4.096 5.12 5.12 4.096 35.84 31.744c-4.096 9.216-8.192 18.432-10.24 28.672l-48.128 3.072h-6.144v6.144l5.12 72.704v6.144h6.144l47.104-3.072c4.096 10.24 8.192 20.48 14.336 29.696l-31.744 35.84-4.096 5.12 5.12 4.096 54.272 48.128 5.12 4.096 4.096-5.12 31.744-36.864c9.216 4.096 18.432 7.168 28.672 9.216l3.072 48.128v6.144h6.144l72.704-5.12h6.144v-6.144l-3.072-49.152c8.192-3.072 16.384-7.168 24.576-12.288l36.864 32.768 5.12 4.096 4.096-5.12L501.76 542.72l4.096-5.12-5.12-4.096-36.864-31.744c4.096-9.216 7.168-18.432 9.216-27.648l50.176-3.072z m-105.472-36.864c3.072 48.128-33.792 91.136-81.92 94.208-48.128 3.072-91.136-33.792-94.208-81.92-3.072-48.128 33.792-91.136 81.92-94.208 48.128-4.096 90.112 32.768 94.208 81.92z" p-id="7706"></path></svg>