<?xml version="1.0" standalone="no"?><!DOCTYPE svg PUBLIC "-//W3C//DTD SVG 1.1//EN" "http://www.w3.org/Graphics/SVG/1.1/DTD/svg11.dtd"><svg t="1537407611519" class="icon" style="" viewBox="0 0 1024 1024" version="1.1" xmlns="http://www.w3.org/2000/svg" p-id="12954" xmlns:xlink="http://www.w3.org/1999/xlink" width="200" height="200"><defs><style type="text/css"></style></defs><path d="M857.6 917.333333h-93.866667c-17.066667 0-34.133333-12.8-34.133333-34.133333s12.8-34.133333 34.133333-34.133333h93.866667c21.333333 0 38.4-17.066667 38.4-38.4V251.733333c0-21.333333-17.066667-38.4-38.4-38.4H170.666667c-21.333333 0-38.4 17.066667-38.4 38.4v567.466667c0 17.066667 17.066667 34.133333 38.4 34.133333h384c17.066667 0 34.133333 12.8 34.133333 34.133334s-12.8 34.133333-34.133333 34.133333H170.666667c-55.466667 0-102.4-46.933333-102.4-102.4V251.733333c0-55.466667 46.933333-102.4 102.4-102.4h686.933333c55.466667 0 102.4 46.933333 102.4 102.4v567.466667c0 51.2-46.933333 98.133333-102.4 98.133333z" fill="#666666" p-id="12955"></path><path d="M396.8 418.133333c0-34.133333 25.6-51.2 55.466667-34.133333l200.533333 115.2c29.866667 17.066667 29.866667 46.933333 0 64L452.266667 682.666667c-29.866667 17.066667-55.466667 4.266667-55.466667-34.133334V418.133333z" fill="#666666" p-id="12956"></path></svg>