<?xml version="1.0" standalone="no"?><!DOCTYPE svg PUBLIC "-//W3C//DTD SVG 1.1//EN" "http://www.w3.org/Graphics/SVG/1.1/DTD/svg11.dtd"><svg t="1538034648496" class="icon" style="" viewBox="0 0 1024 1024" version="1.1" xmlns="http://www.w3.org/2000/svg" p-id="6365" xmlns:xlink="http://www.w3.org/1999/xlink" width="200" height="200"><defs><style type="text/css"></style></defs><path d="M875.246 848.21l0.863-307.42H174.33v308.26H118.37c-4.592 0-8.322 1.43-11.184 4.292-2.867 2.866-4.297 6.457-4.297 10.768 0 4.314 1.43 7.903 4.297 10.766 2.862 2.866 6.59 4.296 11.184 4.296h807.697c2.862 0 5.588-0.715 8.17-2.145 2.586-1.432 4.458-3.304 5.609-5.61 1.151-2.302 1.73-4.887 1.73-7.754 0-4.592-1.435-8.318-4.298-11.184-2.866-2.863-6.595-4.297-11.188-4.297h-50.795l-0.05 0.028zM676.332 641.542V848.21h-135.2V607.098h98.163c9.76 0 17.076 1.003 21.948 3.01 4.873 2.011 8.601 5.448 11.188 10.322 2.582 4.871 3.878 11.903 3.878 21.088l0.023 0.024zM375.805 848.21V641.542c0-4.012 0.287-7.603 0.867-10.765 0.576-3.162 1.292-5.884 2.147-8.173a16.67 16.67 0 0 1 3.878-6.025c1.73-1.73 3.598-3.162 5.604-4.297 2.011-1.135 4.445-1.998 7.312-2.593 2.862-0.593 5.876-1.169 9.038-1.727s6.751-0.848 10.765-0.864h94.727V848.21H375.805zM865.76 223.917H185.514c-9.187 0-17.508 2.159-24.967 6.471-7.455 4.313-13.479 10.338-18.076 18.076-4.592 7.735-6.887 15.917-6.887 24.544v207.531c0 13.778 4.882 25.55 14.643 35.312 9.765 9.765 21.533 14.646 35.316 14.646H865.79c13.78 0 25.552-4.882 35.313-14.646 9.766-9.762 14.647-21.534 14.647-35.312V273.01c0-6.32-1.295-12.636-3.877-18.94-2.586-6.303-6.175-11.612-10.769-15.924-4.592-4.317-9.902-7.756-15.925-10.325-6.029-2.567-12.488-3.858-19.388-3.874l-0.03-0.03zM249.222 356.523c-9.187 0-17.08-3.298-23.68-9.902-6.604-6.599-9.902-14.494-9.902-23.679 0-4.017 0.863-8.182 2.594-12.495 1.727-4.318 4.165-7.903 7.307-10.77 3.142-2.865 6.732-5.16 10.765-6.89 4.037-1.728 8.342-2.59 12.916-2.59 9.189 0 16.932 3.296 23.236 9.9 6.307 6.6 9.465 14.206 9.486 22.816 0 4.594-0.864 8.9-2.594 12.916-1.728 4.017-4.026 7.607-6.891 10.768-2.862 3.159-6.304 5.597-10.321 7.308-4.018 1.71-8.323 2.574-12.915 2.594v0.024z m122.289 0c-9.19 0-17.08-3.298-23.685-9.902-6.599-6.599-9.901-14.345-9.901-23.236 0-8.89 3.302-16.637 9.901-23.236 6.604-6.603 14.494-9.902 23.685-9.902 9.186 0 16.928 3.299 23.236 9.902 6.304 6.6 9.466 14.207 9.482 22.817 0 4.592-0.864 8.897-2.594 12.915-1.727 4.017-4.026 7.608-6.887 10.77-2.866 3.157-6.308 5.595-10.321 7.305-4.018 1.711-8.323 2.58-12.915 2.594v-0.027z m122.257 0c-9.186 0-16.932-3.298-23.236-9.902-6.304-6.599-9.466-14.345-9.482-23.236-0.02-8.89 3.142-16.637 9.482-23.236 6.34-6.603 14.087-9.902 23.236-9.902 9.154 0 16.897 3.299 23.236 9.902 6.34 6.6 9.502 14.207 9.487 22.817 0 4.592-0.868 8.897-2.595 12.915-1.73 4.017-4.025 7.608-6.89 10.77-2.863 3.157-6.304 5.595-10.322 7.305s-8.322 2.58-12.915 2.594v-0.027z m0 0" p-id="6366"></path></svg>