<?xml version="1.0" standalone="no"?><!DOCTYPE svg PUBLIC "-//W3C//DTD SVG 1.1//EN" "http://www.w3.org/Graphics/SVG/1.1/DTD/svg11.dtd"><svg t="1538035255297" class="icon" style="" viewBox="0 0 1280 1024" version="1.1" xmlns="http://www.w3.org/2000/svg" p-id="9414" xmlns:xlink="http://www.w3.org/1999/xlink" width="250" height="200"><defs><style type="text/css"></style></defs><path d="M920.42432 1024H320.10432A341.888 341.888 0 0 1 241.38432 356.032 370.496 370.496 0 0 1 600.42432 0a358.4 358.4 0 0 1 322.56 214.528A394.816 394.816 0 0 1 1280.10432 618.688C1280.10432 842.496 1118.82432 1024 920.42432 1024z m36.48-597.248H320.10432l2.56 181.184h634.24V426.752z m1.28 224H322.66432V800a32 32 0 0 0 10.24 23.36 31.04 31.04 0 0 0 23.68 8.64h567.04a32.512 32.512 0 0 0 23.68-8.896 34.944 34.944 0 0 0 10.88-23.104v-149.184zM827.62432 768a26.816 26.816 0 1 1 28.16-26.816 27.648 27.648 0 0 1-8.32 19.2 28.544 28.544 0 0 1-19.84 7.616z m-90.88 0a26.496 26.496 0 0 1-24.96-27.776 26.56 26.56 0 0 1 53.12 0.96 27.648 27.648 0 0 1-8.32 19.2 26.496 26.496 0 0 1-19.84 7.616z m-323.2-53.184h158.72V768H413.54432v-53.184z m158.72-170.752H413.54432v-53.248h158.72V544z m163.2-53.248a27.776 27.776 0 0 1 26.24 16 25.6 25.6 0 0 1-5.12 28.8 32.768 32.768 0 0 1-30.72 6.4 27.264 27.264 0 0 1-18.56-24.384 28.992 28.992 0 0 1 28.16-26.88z m90.88 0a29.312 29.312 0 0 1 29.44 25.6 28.224 28.224 0 0 1-56.32 1.984 27.776 27.776 0 0 1 26.88-27.648z" p-id="9415"></path></svg>