<?xml version="1.0" standalone="no"?><!DOCTYPE svg PUBLIC "-//W3C//DTD SVG 1.1//EN" "http://www.w3.org/Graphics/SVG/1.1/DTD/svg11.dtd"><svg t="1537407752162" class="icon" style="" viewBox="0 0 1024 1024" version="1.1" xmlns="http://www.w3.org/2000/svg" p-id="14192" xmlns:xlink="http://www.w3.org/1999/xlink" width="200" height="200"><defs><style type="text/css"></style></defs><path d="M42.664409 876.630554c0 43.20778 35.016575 78.194251 78.218334 78.194251H903.111237c43.20477 0 78.218334-34.989481 78.218333-78.194251V153.399209c0-43.213801-35.016575-78.191241-78.218333-78.191241H120.882743c-43.201759 0-78.218334 34.983461-78.218334 78.191241v723.231345z m140.794807-527.774317h657.072537a42.927816 42.927816 0 0 1 43.021137 43.0392v422.185737c0 23.842097-19.160978 42.988023-43.021137 42.988023H183.459216a42.566572 42.566572 0 0 1-30.431788-12.547204 42.816432 42.816432 0 0 1-12.580318-30.440819V391.895437a42.978992 42.978992 0 0 1 12.580318-30.488985 42.991034 42.991034 0 0 1 30.431788-12.550215zM140.453131 221.80375c0-26.99395 21.909442-48.855226 48.879309-48.855226 26.984919 0 48.900382 21.864287 48.900381 48.855226 0 26.981908-21.915463 48.849205-48.900381 48.849205-26.969867-0.00301-48.879309-21.867297-48.879309-48.849205z m175.985983 0c0-26.99395 21.912452-48.855226 48.903392-48.855226 26.960836 0 48.88533 21.864287 48.885329 48.855226 0 26.981908-21.918473 48.849205-48.885329 48.849205-26.987929-0.00301-48.903392-21.867297-48.903392-48.849205z m176.001034 0c0-26.99395 21.909442-48.855226 48.906403-48.855226 26.954815 0 48.876299 21.864287 48.876298 48.855226 0 26.981908-21.88837 48.849205-48.876298 48.849205-26.99696-0.00301-48.906402-21.867297-48.906403-48.849205z" p-id="14193"></path></svg>